#N canvas 827 239 527 327 12;
#X obj 494 149 adc~ 1 2;
#X obj 764 149 r input_gain @hv_param 0 1 1;
#X obj 779 179 r dry_amount @hv_param 0 1 1;
#X obj 794 209 r delay_time @hv_param 0.1 1000 200;
#X obj 824 269 r feedback_switch @hv_param 0 1 1;
#X obj 839 299 r output_gain @hv_param 0 1 1;
#X obj 494 539 dac~ 1 2;
#N canvas 0 50 450 300 first_channel_delay 1;
#X obj 494 314 inlet~ audio signal;
#X obj 494 419 *~ 0;
#X obj 512 389 hsl 128 17 0 1 0 0 empty empty empty -2 -8 0 10 #191919 #e1e1e1 #e1e1e1 0 1;
#X obj 494 779 *~ 0;
#X obj 512 749 hsl 128 17 0 1 0 0 empty empty empty -2 -8 0 10 #191919 #e1e1e1 #e1e1e1 0 1;
#X obj 812 389 hsl 128 17 0.1 1000 0 0 empty empty empty -2 -8 0 10 #191919 #e1e1e1 #e1e1e1 0 1;
#X obj 809 494 *~ 0;
#X obj 512 464 hsl 128 17 0 1 0 0 empty empty empty -2 -8 0 10 #191919 #e1e1e1 #e1e1e1 0 1;
#X obj 827 464 hsl 128 17 0 0.9 0 0 empty empty empty -2 -8 0 10 #191919 #e1e1e1 #e1e1e1 0 1;
#X obj 494 494 *~ 0;
#X obj 569 644 *~ 0;
#X obj 752 599 hsl 128 17 0 1 0 0 empty empty empty -2 -8 0 10 #191919 #e1e1e1 #e1e1e1 0 1;
#X obj 749 625 tgl 25 0 empty empty empty 17 7 0 10 #191919 #e1e1e1 #e1e1e1 0 1;
#X obj 1256 314 inlet output gain;
#X obj 1109 314 inlet feedback switch;
#X obj 974 314 inlet delay amount;
#X obj 854 314 inlet delay time;
#X obj 734 314 inlet dry amount;
#X obj 629 314 inlet input gain;
#X obj 494 809 outlet~ result signal;
#X obj 809 523 send~ first_delay_taps;
#X obj 809 419 delread~ first_delay_buffer 0;
#X obj 569 599 receive~ first_delay_taps;
#X obj 569 674 delwrite~ first_delay_buffer 1000;
#X connect 0 0 1 0;
#X connect 1 0 9 0;
#X connect 1 0 23 0;
#X connect 2 0 1 1;
#X connect 3 0 19 0;
#X connect 4 0 3 1;
#X connect 5 0 21 0;
#X connect 6 0 20 0;
#X connect 7 0 9 1;
#X connect 8 0 6 1;
#X connect 9 0 3 0;
#X connect 10 0 23 0;
#X connect 11 0 12 0;
#X connect 12 0 10 1;
#X connect 13 0 4 0;
#X connect 14 0 11 0;
#X connect 15 0 8 0;
#X connect 16 0 5 0;
#X connect 17 0 7 0;
#X connect 18 0 2 0;
#X connect 21 0 6 0;
#X connect 22 0 3 0;
#X connect 22 0 10 0;
#X restore 494 479 pd first_channel_delay;
#N canvas 0 50 450 300 second_channel_delay 1;
#X obj 494 314 inlet~ audio signal;
#X obj 494 419 *~ 0;
#X obj 512 389 hsl 128 17 0 1 0 0 empty empty empty -2 -8 0 10 #191919 #e1e1e1 #e1e1e1 0 1;
#X obj 494 779 *~ 0;
#X obj 512 749 hsl 128 17 0 1 0 0 empty empty empty -2 -8 0 10 #191919 #e1e1e1 #e1e1e1 0 1;
#X obj 812 389 hsl 128 17 0.1 1000 0 0 empty empty empty -2 -8 0 10 #191919 #e1e1e1 #e1e1e1 0 1;
#X obj 809 494 *~ 0;
#X obj 512 464 hsl 128 17 0 1 0 0 empty empty empty -2 -8 0 10 #191919 #e1e1e1 #e1e1e1 0 1;
#X obj 827 464 hsl 128 17 0 0.9 0 0 empty empty empty -2 -8 0 10 #191919 #e1e1e1 #e1e1e1 0 1;
#X obj 494 494 *~ 0;
#X obj 569 644 *~ 0;
#X obj 767 599 hsl 128 17 0 1 0 0 empty empty empty -2 -8 0 10 #191919 #e1e1e1 #e1e1e1 0 1;
#X obj 764 625 tgl 25 0 empty empty empty 17 7 0 10 #191919 #e1e1e1 #e1e1e1 0 1;
#X obj 1256 314 inlet output gain;
#X obj 1109 314 inlet feedback switch;
#X obj 974 314 inlet delay amount;
#X obj 854 314 inlet delay time;
#X obj 734 314 inlet dry amount;
#X obj 629 314 inlet input gain;
#X obj 494 809 outlet~ result signal;
#X obj 809 419 delread~ second_delay_buffer 0;
#X obj 809 523 send~ second_delay_taps;
#X obj 569 599 receive~ second_delay_taps;
#X obj 569 674 delwrite~ second_delay_buffer 1000;
#X connect 0 0 1 0;
#X connect 1 0 9 0;
#X connect 1 0 23 0;
#X connect 2 0 1 1;
#X connect 3 0 19 0;
#X connect 4 0 3 1;
#X connect 5 0 20 0;
#X connect 6 0 21 0;
#X connect 7 0 9 1;
#X connect 8 0 6 1;
#X connect 9 0 3 0;
#X connect 10 0 23 0;
#X connect 11 0 12 0;
#X connect 12 0 10 1;
#X connect 13 0 4 0;
#X connect 14 0 11 0;
#X connect 15 0 8 0;
#X connect 16 0 5 0;
#X connect 17 0 7 0;
#X connect 18 0 2 0;
#X connect 20 0 6 0;
#X connect 22 0 3 0;
#X connect 22 0 10 0;
#X restore 657 479 pd second_channel_delay;
#X obj 809 239 r delay_amount @hv_param 0 0.95 0;
#X connect 0 0 7 0;
#X connect 0 1 8 0;
#X connect 1 0 7 1;
#X connect 1 0 8 1;
#X connect 2 0 7 2;
#X connect 2 0 8 2;
#X connect 3 0 7 3;
#X connect 3 0 8 3;
#X connect 4 0 7 5;
#X connect 4 0 8 5;
#X connect 5 0 7 6;
#X connect 5 0 8 6;
#X connect 7 0 6 0;
#X connect 8 0 6 1;
#X connect 9 0 7 4;
#X connect 9 0 8 4;
