#N canvas 827 239 527 327 12;
#X obj 377 212 bng 25 250 50 0 empty empty empty 17 7 0 10 #191919 #e1e1e1 #e1e1e1;
#X obj 377 246 f;
#X obj 419 246 + 1;
#X obj 377 275 % 16;
#X obj 377 304 nbx 4 18 -1e+37 1e+37 0 0 empty empty empty 0 -8 0 10 #191919 #e1e1e1 #e1e1e1 0 256;
#X obj 377 331 sel 0 1 2 3 4 5 6 7 8 9 10 11 12 13 14 15;
#X obj 422 -31 hsl 128 17 1 240 0 0 empty empty empty -2 -8 0 10 #191919 #e1e1e1 #e1e1e1 0 1;
#X obj 377 -166 hsl 128 17 0 1 0 0 empty empty empty -2 -8 0 10 #191919 #e1e1e1 #e1e1e1 0 1;
#X obj 374 -106 nbx 7 20 -1e+37 1e+37 0 0 empty empty empty 0 -8 0 10 #191919 #e1e1e1 #e1e1e1 0 256;
#X obj 374 -140 int;
#N canvas 0 50 450 300 midi_input 0;
#X obj 640 159 notein;
#X obj 640 219 stripnote;
#X obj 640 189 pack f f;
#X obj 640 248 mtof;
#X obj 689 269 outlet MIDI velocity;
#X obj 824 269 outlet note off;
#X obj 824 209 sel 0;
#X obj 640 306 outlet MIDI note frequency in Hz;
#X connect 0 0 2 0;
#X connect 0 1 2 1;
#X connect 0 1 6 0;
#X connect 1 0 3 0;
#X connect 1 1 4 0;
#X connect 2 0 1 0;
#X connect 3 0 7 0;
#X connect 6 0 5 0;
#X restore 839 -136 pd midi_input;
#X obj 839 -46 spigot;
#X obj 869 -91 == 0;
#X obj 377 360 bng 25 250 50 0 empty empty empty 17 7 0 10 #191919 #e1e1e1 #e1e1e1;
#X obj 409 360 bng 25 250 50 0 empty empty empty 17 7 0 10 #191919 #e1e1e1 #e1e1e1;
#X obj 441 360 bng 25 250 50 0 empty empty empty 17 7 0 10 #191919 #e1e1e1 #e1e1e1;
#X obj 473 360 bng 25 250 50 0 empty empty empty 17 7 0 10 #191919 #e1e1e1 #e1e1e1;
#X obj 505 360 bng 25 250 50 0 empty empty empty 17 7 0 10 #191919 #e1e1e1 #e1e1e1;
#X obj 537 360 bng 25 250 50 0 empty empty empty 17 7 0 10 #191919 #e1e1e1 #e1e1e1;
#X obj 569 360 bng 25 250 50 0 empty empty empty 17 7 0 10 #191919 #e1e1e1 #e1e1e1;
#X obj 601 360 bng 25 250 50 0 empty empty empty 17 7 0 10 #191919 #e1e1e1 #e1e1e1;
#X obj 633 360 bng 25 250 50 0 empty empty empty 17 7 0 10 #191919 #e1e1e1 #e1e1e1;
#X obj 665 360 bng 25 250 50 0 empty empty empty 17 7 0 10 #191919 #e1e1e1 #e1e1e1;
#X obj 697 360 bng 25 250 50 0 empty empty empty 17 7 0 10 #191919 #e1e1e1 #e1e1e1;
#X obj 729 360 bng 25 250 50 0 empty empty empty 17 7 0 10 #191919 #e1e1e1 #e1e1e1;
#X obj 761 360 bng 25 250 50 0 empty empty empty 17 7 0 10 #191919 #e1e1e1 #e1e1e1;
#X obj 793 360 bng 25 250 50 0 empty empty empty 17 7 0 10 #191919 #e1e1e1 #e1e1e1;
#X obj 825 360 bng 25 250 50 0 empty empty empty 17 7 0 10 #191919 #e1e1e1 #e1e1e1;
#X obj 857 360 bng 25 250 50 0 empty empty empty 17 7 0 10 #191919 #e1e1e1 #e1e1e1;
#N canvas 0 50 450 300 midi_output 0;
#X obj 284 359 makenote;
#X obj 284 404 noteout;
#X obj 284 134 inlet MIDI note;
#X obj 284 254 spigot;
#X obj 314 209 >= 0;
#X obj 284 163 t f f;
#X obj 515 134 inlet note duration;
#X obj 389 134 inlet note velocity;
#X obj 374 299 f, f 6;
#X obj 419 299 f, f 6;
#X obj 374 254 bng 31 250 50 0 empty empty empty 17 7 0 10 #191919 #e1e1e1 #e1e1e1;
#X obj 284 314 int;
#X connect 0 0 1 0;
#X connect 0 1 1 1;
#X connect 2 0 5 0;
#X connect 3 0 10 0;
#X connect 3 0 11 0;
#X connect 4 0 3 1;
#X connect 5 0 3 0;
#X connect 5 1 4 0;
#X connect 6 0 9 1;
#X connect 7 0 8 1;
#X connect 8 0 0 1;
#X connect 9 0 0 2;
#X connect 10 0 8 0;
#X connect 10 0 9 0;
#X connect 11 0 0 0;
#X restore 374 599 pd midi_output;
#X obj 374 -346 loadbang;
#X msg 404 -256 120;
#X msg 599 -108 0.25;
#X msg 648 -108 0.5;
#X msg 689 -108 1;
#X msg 718 -108 2;
#X msg 748 -108 4;
#X obj 599 -137 sel 0 1 2 3 4;
#X obj 419 -61 r tempo_bpm @hv_param 1 240 120;
#X obj 377 -51 tgl 25 0 empty empty empty 17 7 0 10 #191919 #e1e1e1 #e1e1e1 0 1;
#X obj 419 -5 t b f;
#X obj 419 89 /;
#X obj 419 118 int;
#X obj 374 179 metro 500;
#X msg 419 24 60000;
#X obj 599 -16 t b f;
#X obj 419 53 *;
#X obj 1049 -76 r note_01 @hv_param -1 15 0;
#X obj 1064 -46 r note_02 @hv_param -1 15 1;
#X obj 1079 -16 r note_03 @hv_param -1 15 2;
#X obj 1094 14 r note_04 @hv_param -1 15 3;
#X obj 1109 44 r note_05 @hv_param -1 15 4;
#X obj 1124 74 r note_06 @hv_param -1 15 5;
#X obj 1139 104 r note_07 @hv_param -1 15 6;
#X obj 1154 134 r note_08 @hv_param -1 15 7;
#X obj 1244 -76 r note_09 @hv_param -1 15 8;
#X obj 1259 -46 r note_10 @hv_param -1 15 9;
#X obj 1274 -16 r note_11 @hv_param -1 15 10;
#X obj 1289 14 r note_12 @hv_param -1 15 11;
#X obj 1304 44 r note_13 @hv_param -1 15 12;
#X obj 1319 74 r note_14 @hv_param -1 15 13;
#X obj 1334 104 r note_15 @hv_param -1 15 14;
#X obj 1349 134 r note_16 @hv_param -1 15 15;
#X msg 374 -256 1;
#X msg 447 -256 1;
#X obj 599 -167 int;
#X obj 602 -196 hsl 128 17 0 5 0 0 empty empty empty -2 -8 0 10 #191919 #e1e1e1 #e1e1e1 0 1;
#X obj 599 -226 r tempo_division @hv_param 0 5 0;
#X obj 614 554 r note_velocity @hv_param 0 127 127;
#X obj 614 584 r note_duration @hv_param 0 1000 100;
#X obj 374 -317 t b b b b b;
#X msg 524 -256 100;
#X msg 476 -256 127;
#X obj 377 423 f;
#X obj 419 423 f;
#X obj 461 423 f;
#X obj 503 423 f;
#X obj 545 423 f;
#X obj 587 423 f;
#X obj 629 423 f;
#X obj 671 423 f;
#X obj 713 423 f;
#X obj 755 423 f;
#X obj 797 423 f;
#X obj 839 423 f;
#X obj 881 423 f;
#X obj 923 423 f;
#X obj 965 423 f;
#X obj 1007 423 f;
#X obj 374 -211 r internal_tempo @hv_param 0 1 1;
#X connect 0 0 1 0;
#X connect 1 0 2 0;
#X connect 1 0 3 0;
#X connect 2 0 1 1;
#X connect 3 0 4 0;
#X connect 4 0 5 0;
#X connect 5 0 13 0;
#X connect 5 1 14 0;
#X connect 5 2 15 0;
#X connect 5 3 16 0;
#X connect 5 4 17 0;
#X connect 5 5 18 0;
#X connect 5 6 19 0;
#X connect 5 7 20 0;
#X connect 5 8 21 0;
#X connect 5 9 22 0;
#X connect 5 10 23 0;
#X connect 5 11 24 0;
#X connect 5 12 25 0;
#X connect 5 13 26 0;
#X connect 5 14 27 0;
#X connect 5 15 28 0;
#X connect 6 0 40 0;
#X connect 7 0 9 0;
#X connect 8 0 12 0;
#X connect 8 0 39 0;
#X connect 9 0 8 0;
#X connect 10 0 11 0;
#X connect 11 0 0 0;
#X connect 12 0 11 1;
#X connect 13 0 73 0;
#X connect 14 0 74 0;
#X connect 15 0 75 0;
#X connect 16 0 76 0;
#X connect 17 0 77 0;
#X connect 18 0 78 0;
#X connect 19 0 79 0;
#X connect 20 0 80 0;
#X connect 21 0 81 0;
#X connect 22 0 82 0;
#X connect 23 0 83 0;
#X connect 24 0 84 0;
#X connect 25 0 85 0;
#X connect 26 0 86 0;
#X connect 27 0 87 0;
#X connect 28 0 88 0;
#X connect 30 0 70 0;
#X connect 31 0 6 0;
#X connect 32 0 45 0;
#X connect 33 0 45 0;
#X connect 34 0 45 0;
#X connect 35 0 45 0;
#X connect 36 0 45 0;
#X connect 37 0 32 0;
#X connect 37 1 33 0;
#X connect 37 2 34 0;
#X connect 37 3 35 0;
#X connect 37 4 36 0;
#X connect 37 5 36 0;
#X connect 38 0 6 0;
#X connect 39 0 43 0;
#X connect 40 0 44 0;
#X connect 40 1 41 1;
#X connect 41 0 42 0;
#X connect 42 0 43 1;
#X connect 43 0 0 0;
#X connect 44 0 46 0;
#X connect 45 0 44 0;
#X connect 45 1 46 1;
#X connect 46 0 41 0;
#X connect 47 0 73 1;
#X connect 48 0 74 1;
#X connect 49 0 75 1;
#X connect 50 0 76 1;
#X connect 51 0 77 1;
#X connect 52 0 78 1;
#X connect 53 0 79 1;
#X connect 54 0 80 1;
#X connect 55 0 81 1;
#X connect 56 0 82 1;
#X connect 57 0 83 1;
#X connect 58 0 84 1;
#X connect 59 0 85 1;
#X connect 60 0 86 1;
#X connect 61 0 87 1;
#X connect 62 0 88 1;
#X connect 63 0 7 0;
#X connect 64 0 65 0;
#X connect 65 0 37 0;
#X connect 66 0 65 0;
#X connect 67 0 66 0;
#X connect 68 0 29 1;
#X connect 69 0 29 2;
#X connect 70 0 63 0;
#X connect 70 1 31 0;
#X connect 70 2 64 0;
#X connect 70 3 72 0;
#X connect 70 4 71 0;
#X connect 71 0 29 2;
#X connect 72 0 29 1;
#X connect 73 0 29 0;
#X connect 74 0 29 0;
#X connect 75 0 29 0;
#X connect 76 0 29 0;
#X connect 77 0 29 0;
#X connect 78 0 29 0;
#X connect 79 0 29 0;
#X connect 80 0 29 0;
#X connect 81 0 29 0;
#X connect 82 0 29 0;
#X connect 83 0 29 0;
#X connect 84 0 29 0;
#X connect 85 0 29 0;
#X connect 86 0 29 0;
#X connect 87 0 29 0;
#X connect 88 0 29 0;
#X connect 89 0 7 0;
