#N canvas 827 239 527 327 12;
#X obj 524 194 int;
#X obj 524 223 change;
#X obj 524 252 nbx 4 18 -1e+37 1e+37 0 0 empty empty empty 0 -8 0 10 #191919 #e1e1e1 #e1e1e1 0 256;
#X obj 527 164 hsl 128 17 0 4 0 0 empty empty empty -2 -8 0 10 #191919 #e1e1e1 #e1e1e1 0 1;
#X obj 524 284 == 0;
#X obj 569 284 == 1;
#X obj 614 284 == 2;
#X obj 659 284 >= 3;
#X obj 524 314 tgl 23 0 empty empty empty 17 7 0 10 #191919 #e1e1e1 #e1e1e1 0 1;
#X obj 569 314 tgl 23 0 empty empty empty 17 7 0 10 #191919 #e1e1e1 #e1e1e1 0 1;
#X obj 614 314 tgl 23 0 empty empty empty 17 7 0 10 #191919 #e1e1e1 #e1e1e1 0 1;
#X obj 659 314 tgl 23 0 empty empty empty 17 7 0 10 #191919 #e1e1e1 #e1e1e1 0 1;
#N canvas 0 50 450 300 sine 0;
#X obj 644 299 osc~;
#X obj 644 328 outlet~ sine wave output;
#X obj 644 269 inlet~ frequency in Hz;
#X connect 0 0 1 0;
#X connect 2 0 0 0;
#X restore 824 209 pd sine;
#X obj 824 239 *~ 0;
#X obj 524 449 s activate_sine;
#X obj 884 209 r activate_sine;
#N canvas 0 50 450 300 midi_input 0;
#X obj 640 159 notein;
#X obj 640 219 stripnote;
#X obj 640 189 pack f f;
#X obj 640 248 mtof;
#X obj 689 269 outlet MIDI velocity;
#X obj 824 269 outlet note off;
#X obj 824 209 sel 0;
#X obj 640 306 outlet MIDI note frequency in Hz;
#X connect 0 0 2 0;
#X connect 0 1 2 1;
#X connect 0 1 6 0;
#X connect 1 0 3 0;
#X connect 1 1 4 0;
#X connect 2 0 1 0;
#X connect 3 0 7 0;
#X connect 6 0 5 0;
#X restore 824 14 pd midi_input;
#N canvas 0 50 450 300 saw 0;
#X obj 460 263 inlet~ frequency in Hz;
#X obj 460 292 phasor~;
#X obj 460 321 *~ 2;
#X obj 460 350 -~ 1;
#X obj 460 379 outlet~ saw wave output;
#X connect 0 0 1 0;
#X connect 1 0 2 0;
#X connect 2 0 3 0;
#X connect 3 0 4 0;
#X restore 1019 209 pd saw;
#X obj 1019 238 *~ 0;
#X obj 1082 209 r activate_saw;
#N canvas 0 50 450 300 square 0;
#X obj 561 207 inlet~ frequency in Hz;
#X obj 561 323 outlet~ saw wave output;
#X obj 561 236 osc~;
#X obj 561 265 *~ 1000;
#X obj 561 294 clip~ -1 1;
#X connect 0 0 2 0;
#X connect 2 0 3 0;
#X connect 3 0 4 0;
#X connect 4 0 1 0;
#X restore 1214 209 pd square;
#X obj 1293 209 r activate_square;
#X obj 1214 238 *~ 0;
#X obj 1439 238 *~ 0;
#N canvas 0 50 450 300 triangle 0;
#X obj 569 224 inlet~ frequency in Hz;
#X obj 569 299 phasor~;
#X obj 659 269 *~ -1;
#X obj 659 298 phasor~;
#X obj 659 329 *~ 2;
#X obj 569 329 *~ 2;
#X obj 569 359 -~ 1;
#X obj 659 359 -~ 1;
#X obj 569 419 +~;
#X obj 569 449 *~ 2;
#X obj 569 478 -~ 1;
#X obj 569 388 clip~ 0 1;
#X obj 659 389 clip~ 0 1;
#X obj 569 509 outlet~ triangle wave output;
#X connect 0 0 1 0;
#X connect 0 0 2 0;
#X connect 1 0 5 0;
#X connect 2 0 3 0;
#X connect 3 0 4 0;
#X connect 4 0 7 0;
#X connect 5 0 6 0;
#X connect 6 0 11 0;
#X connect 7 0 12 0;
#X connect 8 0 9 0;
#X connect 9 0 10 0;
#X connect 10 0 13 0;
#X connect 11 0 8 0;
#X connect 12 0 8 1;
#X restore 1439 209 pd triangle;
#X obj 1529 209 r activate_triangle;
#X obj 569 419 s activate_triangle;
#X obj 614 389 s activate_square;
#X obj 659 359 s activate_saw;
#N canvas 0 50 450 300 filter 0;
#X obj 434 104 inlet~ audio input;
#X obj 554 104 inlet cutoff_frequency;
#X obj 434 449 outlet~ filtered output;
#X obj 434 419 *~ 1;
#X obj 434 359 vcf~;
#X obj 704 104 inlet resonance;
#X obj 554 133 sig~;
#X obj 824 104 inlet~ envelope;
#X obj 554 179 *~;
#X connect 0 0 4 0;
#X connect 1 0 6 0;
#X connect 3 0 2 0;
#X connect 4 0 3 0;
#X connect 4 1 3 0;
#X connect 5 0 4 2;
#X connect 6 0 8 0;
#X connect 7 0 8 1;
#X connect 8 0 4 1;
#X restore 824 959 pd filter;
#X obj 824 1153 dac~ 1 2;
#X obj 887 854 hsl 128 17 0 6 0 0 empty empty empty -2 -8 0 10 #191919 #e1e1e1 #e1e1e1 0 1;
#X obj 824 359 *~ 1;
#X obj 404 135 loadbang;
#X obj 404 164 s set_defaults;
#X obj 404 194 r set_defaults;
#X obj 854 704 r set_defaults;
#X msg 854 734 2000;
#X msg 908 734 1;
#X obj 824 103 sig~;
#X obj 524 134 r waveform @hv_param 0 4 1;
#X obj 884 824 r filter_resonance @hv_param 0 6 1;
#X obj 824 1109 *~ 0;
#X obj 842 1049 hsl 128 17 0 1 0 0 empty empty empty -2 -8 0 10 #191919 #e1e1e1 #e1e1e1 0 1;
#N canvas 0 50 450 300 envelope 0;
#X obj 719 209 inlet attack;
#X obj 809 209 inlet decay;
#X obj 893 209 inlet sustain;
#X obj 983 209 inlet release;
#X obj 1074 209 inlet note velocity;
#X obj 761 696 unpack f f f;
#X obj 761 647 t a b;
#X msg 779 671 0;
#X obj 704 783 line~;
#X obj 704 614 route stop;
#X msg 704 706 stop;
#X obj 704 636 t b b;
#X msg 717 674 clear;
#N canvas 274 138 360 214 dbl-pipe 0;
#X obj 65 42 inlet;
#X obj 125 42 inlet;
#X obj 185 42 inlet;
#X obj 65 84 pipe 0;
#X obj 125 84 pipe 0;
#X obj 65 106 outlet;
#X obj 125 106 outlet;
#X connect 0 0 3 0;
#X connect 0 0 4 0;
#X connect 1 0 4 0;
#X connect 2 0 3 1;
#X connect 2 0 4 1;
#X connect 3 0 5 0;
#X connect 4 0 6 0;
#X restore 761 724 pd dbl-pipe;
#X obj 761 748 pack f f;
#X obj 704 854 outlet~ envelope;
#X msg 1394 406 0 \$1;
#X obj 1094 314 / 127;
#X obj 1198 209 inlet velocity control amount;
#X obj 704 524 pack f f f f;
#X obj 704 479 f;
#X obj 749 479 f;
#X obj 794 479 f;
#X obj 1394 331 f;
#X obj 1094 343 pow;
#X obj 839 479 f;
#X obj 704 434 t b b b b;
#X obj 704 824 *~;
#X obj 884 254 *;
#X msg 704 554 \$4 \$1 \, \$3 \$2 \$1;
#X obj 1394 284 bng 25 250 50 0 empty empty empty 17 7 0 10 #191919 #e1e1e1 #e1e1e1;
#X obj 1384 209 inlet note off;
#X obj 1079 269 t b f;
#X obj 1094 372 t f f;
#X connect 0 0 20 1;
#X connect 1 0 21 1;
#X connect 2 0 28 1;
#X connect 3 0 23 1;
#X connect 4 0 32 0;
#X connect 5 0 13 0;
#X connect 5 1 13 1;
#X connect 5 2 13 2;
#X connect 6 0 5 0;
#X connect 6 1 7 0;
#X connect 7 0 13 2;
#X connect 8 0 27 0;
#X connect 8 0 27 1;
#X connect 9 0 11 0;
#X connect 9 1 6 0;
#X connect 10 0 8 0;
#X connect 11 0 10 0;
#X connect 11 1 12 0;
#X connect 12 0 13 0;
#X connect 12 0 13 1;
#X connect 13 0 14 0;
#X connect 13 1 14 1;
#X connect 14 0 8 0;
#X connect 16 0 9 0;
#X connect 17 0 24 0;
#X connect 18 0 24 1;
#X connect 19 0 29 0;
#X connect 20 0 19 0;
#X connect 21 0 19 1;
#X connect 22 0 19 2;
#X connect 23 0 16 0;
#X connect 24 0 33 0;
#X connect 25 0 19 3;
#X connect 26 0 20 0;
#X connect 26 1 21 0;
#X connect 26 2 22 0;
#X connect 26 3 25 0;
#X connect 27 0 15 0;
#X connect 28 0 22 1;
#X connect 29 0 9 0;
#X connect 30 0 23 0;
#X connect 31 0 30 0;
#X connect 32 0 26 0;
#X connect 32 1 17 0;
#X connect 33 0 28 0;
#X connect 33 1 25 1;
#X restore 1184 884 pd envelope;
#X obj 1709 764 r filter_eg_sustain @hv_param 0 1 1;
#X obj 1187 794 hsl 128 17 0 10000 0 0 empty empty empty -2 -8 0 10 #191919 #e1e1e1 #e1e1e1 0 1;
#X obj 1442 794 hsl 128 17 0 10000 0 0 empty empty empty -2 -8 0 10 #191919 #e1e1e1 #e1e1e1 0 1;
#X obj 1937 794 hsl 128 17 0 10000 0 0 empty empty empty -2 -8 0 10 #191919 #e1e1e1 #e1e1e1 0 1;
#X obj 1712 794 hsl 128 17 0 1 0 0 empty empty empty -2 -8 0 10 #191919 #e1e1e1 #e1e1e1 0 1;
#X msg 1184 734 10;
#X msg 1439 734 100;
#X msg 1709 734 1;
#X msg 1934 734 100;
#X obj 2207 794 hsl 128 17 0 1 0 0 empty empty empty -2 -8 0 10 #191919 #e1e1e1 #e1e1e1 0 1;
#X msg 2204 734 0;
#X obj 839 1019 r output_volume @hv_param 0 1 0.5;
#X obj 839 1075 * 0.5;
#X obj 2204 764 r filter_eg_velocity_control_amount @hv_param 0 1 0;
#X obj 824 569 *~;
#X obj 854 389 r set_defaults;
#N canvas 0 50 450 300 envelope 0;
#X obj 734 239 inlet attack;
#X obj 824 239 inlet decay;
#X obj 908 239 inlet sustain;
#X obj 998 239 inlet release;
#X obj 1089 239 inlet note velocity;
#X obj 776 726 unpack f f f;
#X obj 776 677 t a b;
#X msg 794 701 0;
#X obj 719 813 line~;
#X obj 719 644 route stop;
#X msg 719 736 stop;
#X obj 719 666 t b b;
#X msg 732 704 clear;
#N canvas 274 138 360 214 dbl-pipe 0;
#X obj 65 42 inlet;
#X obj 125 42 inlet;
#X obj 185 42 inlet;
#X obj 65 84 pipe 0;
#X obj 125 84 pipe 0;
#X obj 65 106 outlet;
#X obj 125 106 outlet;
#X connect 0 0 3 0;
#X connect 0 0 4 0;
#X connect 1 0 4 0;
#X connect 2 0 3 1;
#X connect 2 0 4 1;
#X connect 3 0 5 0;
#X connect 4 0 6 0;
#X restore 776 754 pd dbl-pipe;
#X obj 776 778 pack f f;
#X obj 719 884 outlet~ envelope;
#X msg 1409 436 0 \$1;
#X obj 1109 344 / 127;
#X obj 1213 239 inlet velocity control amount;
#X obj 719 554 pack f f f f;
#X obj 719 509 f;
#X obj 764 509 f;
#X obj 809 509 f;
#X obj 1409 361 f;
#X obj 1109 373 pow;
#X obj 854 509 f;
#X obj 719 464 t b b b b;
#X obj 719 854 *~;
#X obj 899 284 *;
#X msg 719 584 \$4 \$1 \, \$3 \$2 \$1;
#X obj 1409 314 bng 25 250 50 0 empty empty empty 17 7 0 10 #191919 #e1e1e1 #e1e1e1;
#X obj 1399 239 inlet note off;
#X obj 1094 299 t b f;
#X obj 1109 402 t f f;
#X connect 0 0 20 1;
#X connect 1 0 21 1;
#X connect 2 0 28 1;
#X connect 3 0 23 1;
#X connect 4 0 32 0;
#X connect 5 0 13 0;
#X connect 5 1 13 1;
#X connect 5 2 13 2;
#X connect 6 0 5 0;
#X connect 6 1 7 0;
#X connect 7 0 13 2;
#X connect 8 0 27 0;
#X connect 8 0 27 1;
#X connect 9 0 11 0;
#X connect 9 1 6 0;
#X connect 10 0 8 0;
#X connect 11 0 10 0;
#X connect 11 1 12 0;
#X connect 12 0 13 0;
#X connect 12 0 13 1;
#X connect 13 0 14 0;
#X connect 13 1 14 1;
#X connect 14 0 8 0;
#X connect 16 0 9 0;
#X connect 17 0 24 0;
#X connect 18 0 24 1;
#X connect 19 0 29 0;
#X connect 20 0 19 0;
#X connect 21 0 19 1;
#X connect 22 0 19 2;
#X connect 23 0 16 0;
#X connect 24 0 33 0;
#X connect 25 0 19 3;
#X connect 26 0 20 0;
#X connect 26 1 21 0;
#X connect 26 2 22 0;
#X connect 26 3 25 0;
#X connect 27 0 15 0;
#X connect 28 0 22 1;
#X connect 29 0 9 0;
#X connect 30 0 23 0;
#X connect 31 0 30 0;
#X connect 32 0 26 0;
#X connect 32 1 17 0;
#X connect 33 0 28 0;
#X connect 33 1 25 1;
#X restore 1184 569 pd envelope;
#X obj 1187 479 hsl 128 17 0 10000 0 0 empty empty empty -2 -8 0 10 #191919 #e1e1e1 #e1e1e1 0 1;
#X obj 1457 479 hsl 128 17 0 10000 0 0 empty empty empty -2 -8 0 10 #191919 #e1e1e1 #e1e1e1 0 1;
#X obj 1982 479 hsl 128 17 0 10000 0 0 empty empty empty -2 -8 0 10 #191919 #e1e1e1 #e1e1e1 0 1;
#X obj 1742 479 hsl 128 17 0 1 0 0 empty empty empty -2 -8 0 10 #191919 #e1e1e1 #e1e1e1 0 1;
#X msg 1184 419 10;
#X msg 1454 419 100;
#X msg 1739 419 1;
#X msg 1979 419 100;
#X obj 2267 479 hsl 128 17 0 1 0 0 empty empty empty -2 -8 0 10 #191919 #e1e1e1 #e1e1e1 0 1;
#X msg 2264 419 0;
#X obj 1739 449 r volume_eg_sustain @hv_param 0 1 1;
#X obj 2264 449 r volume_eg_velocity_control_amount @hv_param 0 1 0;
#X obj 854 59 s midi_note_velocity;
#X obj 944 494 r midi_note_velocity;
#X obj 1034 854 r midi_note_velocity;
#X msg 839 989 0.5;
#X msg 404 223 1;
#X obj 1184 449 r volume_eg_attack @hv_param 0 2000 10;
#X obj 1454 449 r volume_eg_decay @hv_param 0 2000 100;
#X obj 1979 449 r volume_eg_release @hv_param 0 2000 100;
#X obj 1934 764 r filter_eg_release @hv_param 0 2000 100;
#X obj 1439 764 r filter_eg_decay @hv_param 0 2000 100;
#X obj 1184 764 r filter_eg_attack @hv_param 0 2000 10;
#N canvas 0 50 450 300 note_counter 0;
#X obj 584 494 outlet all notes off bang;
#X obj 584 283 bng 25 250 50 0 empty empty empty 17 7 0 10 #191919 #e1e1e1 #e1e1e1;
#X obj 740 288 bng 25 250 50 0 empty empty empty 17 7 0 10 #191919 #e1e1e1 #e1e1e1;
#X obj 584 449 bng 25 250 50 0 empty empty empty 17 7 0 10 #191919 #e1e1e1 #e1e1e1;
#X obj 584 359 f;
#X obj 626 359 +;
#X msg 740 322 -1;
#X obj 584 389 nbx 4 18 -1e+37 1e+37 0 0 empty empty empty 0 -8 0 10 #191919 #e1e1e1 #e1e1e1 0 256;
#X obj 584 419 sel 0;
#X obj 584 254 inlet note pressed;
#X obj 749 254 inlet note off;
#X msg 584 317 1;
#X msg 464 284 0;
#X obj 464 254 r set_defaults;
#X connect 1 0 11 0;
#X connect 2 0 6 0;
#X connect 3 0 0 0;
#X connect 4 0 5 1;
#X connect 4 0 7 0;
#X connect 5 0 4 0;
#X connect 6 0 5 0;
#X connect 7 0 8 0;
#X connect 8 0 3 0;
#X connect 9 0 1 0;
#X connect 10 0 2 0;
#X connect 11 0 5 0;
#X connect 12 0 4 1;
#X connect 13 0 12 0;
#X restore 1169 59 pd note_counter;
#X obj 1169 88 bng 25 250 50 0 empty empty empty 17 7 0 10 #191919 #e1e1e1 #e1e1e1;
#X obj 1169 122 s all_notes_off_bang;
#X obj 944 523 r all_notes_off_bang;
#X obj 1034 884 r all_notes_off_bang;
#X obj 854 764 r filter_cutoff_frequency @hv_param 20 6000 2000;
#X obj 857 794 hsl 128 17 20 6000 0 0 empty empty empty -2 -8 0 10 #191919 #e1e1e1 #e1e1e1 0 1;
#X connect 0 0 1 0;
#X connect 1 0 2 0;
#X connect 2 0 4 0;
#X connect 2 0 5 0;
#X connect 2 0 6 0;
#X connect 2 0 7 0;
#X connect 3 0 0 0;
#X connect 4 0 8 0;
#X connect 5 0 9 0;
#X connect 6 0 10 0;
#X connect 7 0 11 0;
#X connect 8 0 14 0;
#X connect 9 0 26 0;
#X connect 10 0 27 0;
#X connect 11 0 28 0;
#X connect 12 0 13 0;
#X connect 13 0 32 0;
#X connect 15 0 13 1;
#X connect 16 0 39 0;
#X connect 16 1 74 0;
#X connect 16 1 85 0;
#X connect 16 2 85 1;
#X connect 17 0 18 0;
#X connect 18 0 32 0;
#X connect 19 0 18 1;
#X connect 20 0 22 0;
#X connect 21 0 22 1;
#X connect 22 0 32 0;
#X connect 23 0 32 0;
#X connect 24 0 23 0;
#X connect 25 0 23 1;
#X connect 29 0 42 0;
#X connect 31 0 29 2;
#X connect 32 0 59 0;
#X connect 33 0 34 0;
#X connect 35 0 78 0;
#X connect 36 0 37 0;
#X connect 36 0 38 0;
#X connect 36 0 50 0;
#X connect 36 0 51 0;
#X connect 36 0 52 0;
#X connect 36 0 53 0;
#X connect 36 0 55 0;
#X connect 36 0 77 0;
#X connect 37 0 91 0;
#X connect 38 0 31 0;
#X connect 39 0 12 0;
#X connect 39 0 17 0;
#X connect 39 0 20 0;
#X connect 39 0 24 0;
#X connect 40 0 3 0;
#X connect 41 0 31 0;
#X connect 42 0 30 0;
#X connect 42 0 30 1;
#X connect 43 0 57 0;
#X connect 44 0 29 3;
#X connect 45 0 49 0;
#X connect 46 0 44 0;
#X connect 47 0 44 1;
#X connect 48 0 44 3;
#X connect 49 0 44 2;
#X connect 50 0 46 0;
#X connect 51 0 47 0;
#X connect 52 0 49 0;
#X connect 53 0 48 0;
#X connect 54 0 44 5;
#X connect 55 0 54 0;
#X connect 56 0 43 0;
#X connect 57 0 42 1;
#X connect 58 0 54 0;
#X connect 59 0 29 0;
#X connect 60 0 66 0;
#X connect 60 0 67 0;
#X connect 60 0 68 0;
#X connect 60 0 69 0;
#X connect 60 0 71 0;
#X connect 61 0 59 1;
#X connect 62 0 61 0;
#X connect 63 0 61 1;
#X connect 64 0 61 3;
#X connect 65 0 61 2;
#X connect 66 0 62 0;
#X connect 67 0 63 0;
#X connect 68 0 65 0;
#X connect 69 0 64 0;
#X connect 70 0 61 5;
#X connect 71 0 70 0;
#X connect 72 0 65 0;
#X connect 73 0 70 0;
#X connect 75 0 61 4;
#X connect 76 0 44 4;
#X connect 77 0 43 0;
#X connect 78 0 2 0;
#X connect 79 0 62 0;
#X connect 80 0 63 0;
#X connect 81 0 64 0;
#X connect 82 0 48 0;
#X connect 83 0 47 0;
#X connect 84 0 46 0;
#X connect 85 0 86 0;
#X connect 86 0 87 0;
#X connect 88 0 61 6;
#X connect 89 0 44 6;
#X connect 90 0 91 0;
#X connect 91 0 29 1;
